<svg width="100%" height="100%" viewBox="0 0 59 59" version="1.1" xmlns="http://www.w3.org/2000/svg" xmlns:xlink="http://www.w3.org/1999/xlink" xml:space="preserve" style="fill-rule:evenodd;clip-rule:evenodd;strokelinejoin:round;stroke-miterlimit:1.41421;">
    <rect x="33.32" y="33.318" width="9.019" height="9.023" style="fill:#00529c;fill-opacity:0.2"></rect>
    <rect x="33.32" y="0" width="9.019" height="9.023" style="fill: #00489c;fill-opacity:0.2"></rect>
    <rect x="49.981" y="33.318" width="9.019" height="9.023" style="fill:##00489c;fill-opacity:0.2"></rect>
    <rect x="49.981" y="0" width="9.019" height="9.023" style="fill:#002772"></rect>
    <rect x="49.981" y="49.976" width="9.019" height="9.023" style="fill:#00489c;fill-opacity:0.2"></rect>
    <rect x="49.981" y="16.659" width="9.019" height="9.023" style="fill:#00aeef"></rect>
    <rect x="33.32" y="49.976" width="9.019" height="9.023" style="fill:#c81c24"></rect>
    <rect x="33.32" y="16.659" width="9.019" height="9.023" style="fill:#00489c;fill-opacity:0.2"></rect>
    <rect x="0" y="49.976" width="9.019" height="9.023" style="fill:#ffc800"></rect>
    <rect x="0" y="16.659" width="9.019" height="9.023" style="fill:#96d31d"></rect>
    <rect x="16.66" y="49.976" width="9.019" height="9.023" style="fill:#de00a4"></rect>
    <rect x="16.66" y="16.659" width="9.019" height="9.023" style="fill:#00489c;fill-opacity:0.2"></rect>
    <rect x="16.66" y="33.318" width="9.019" height="9.023" style="fill:#ee7834"></rect>
    <rect x="16.66" y="0" width="9.019" height="9.023" style="fill:#00489c;fill-opacity:0.2"></rect>
    <rect x="0" y="33.318" width="9.019" height="9.023" style="fill:#00489c;fill-opacity:0.2"></rect>
    <rect x="0" y="0" width="9.019" height="9.023" style="fill:#548725"></rect>
</svg>