<svg xmlns="http://www.w3.org/2000/svg" version="1.1" xmlns:xlink="http://www.w3.org/1999/xlink"
     xmlns:svgjs="http://svgjs.dev/svgjs" width="2560" height="1440" preserveAspectRatio="none" viewBox="0 0 2560 1440">
  <g mask="url(&quot;#SvgjsMask13624&quot;)" fill="none">
    <rect width="2560" height="1440" x="0" y="0" fill="url(&quot;#SvgjsLinearGradient13625&quot;)"></rect>
    <path
      d="M221.7 1207.46L380.18 1298.96L380.18 1481.96L221.7 1573.46L63.21 1481.96L63.21 1298.96zM1014.13 -165.04L1172.62 -73.54L1172.62 109.46L1014.13 200.96L855.65 109.46L855.65 -73.54zM1014.13 932.96L1172.62 1024.46L1172.62 1207.46L1014.13 1298.96L855.65 1207.46L855.65 1024.46zM1489.59 658.46L1648.08 749.96L1648.08 932.96L1489.59 1024.46L1331.11 932.96L1331.11 749.96zM1648.08 383.96L1806.57 475.46L1806.57 658.46L1648.08 749.96L1489.59 658.46L1489.59 475.46zM1806.57 658.46L1965.06 749.96L1965.06 932.96L1806.57 1024.46L1648.08 932.96L1648.08 749.96zM2440.52 658.46L2599 749.96L2599 932.96L2440.52 1024.46L2282.03 932.96L2282.03 749.96z"
      stroke="url(&quot;#SvgjsLinearGradient13626&quot;)" stroke-width="2"></path>
    <path
      d="M46.08 1124.72L156.93 1188.72L156.93 1316.72L46.08 1380.72L-64.77 1316.72L-64.77 1188.72zM156.93 1316.72L267.79 1380.72L267.79 1508.72L156.93 1572.72L46.08 1508.72L46.08 1380.72zM267.79 356.72L378.64 420.72L378.64 548.72L267.79 612.72L156.93 548.72L156.93 420.72zM378.64 548.72L489.5 612.72L489.5 740.72L378.64 804.72L267.79 740.72L267.79 612.72zM267.79 1124.72L378.64 1188.72L378.64 1316.72L267.79 1380.72L156.93 1316.72L156.93 1188.72zM489.5 -27.28L600.35 36.72L600.35 164.72L489.5 228.72L378.64 164.72L378.64 36.72zM489.5 740.72L600.35 804.72L600.35 932.72L489.5 996.72L378.64 932.72L378.64 804.72zM600.35 1316.72L711.21 1380.72L711.21 1508.72L600.35 1572.72L489.5 1508.72L489.5 1380.72zM711.21 -27.28L822.06 36.72L822.06 164.72L711.21 228.72L600.35 164.72L600.35 36.72zM932.92 -27.28L1043.77 36.72L1043.77 164.72L932.92 228.72L822.06 164.72L822.06 36.72zM1043.77 164.72L1154.62 228.72L1154.62 356.72L1043.77 420.72L932.92 356.72L932.92 228.72zM932.92 740.72L1043.77 804.72L1043.77 932.72L932.92 996.72L822.06 932.72L822.06 804.72zM1043.77 932.72L1154.62 996.72L1154.62 1124.72L1043.77 1188.72L932.92 1124.72L932.92 996.72zM1043.77 1316.72L1154.62 1380.72L1154.62 1508.72L1043.77 1572.72L932.92 1508.72L932.92 1380.72zM1265.48 1316.72L1376.33 1380.72L1376.33 1508.72L1265.48 1572.72L1154.62 1508.72L1154.62 1380.72zM1487.19 164.72L1598.04 228.72L1598.04 356.72L1487.19 420.72L1376.33 356.72L1376.33 228.72zM1487.19 548.72L1598.04 612.72L1598.04 740.72L1487.19 804.72L1376.33 740.72L1376.33 612.72zM1598.04 -27.28L1708.9 36.72L1708.9 164.72L1598.04 228.72L1487.19 164.72L1487.19 36.72zM1708.9 164.72L1819.75 228.72L1819.75 356.72L1708.9 420.72L1598.04 356.72L1598.04 228.72zM1708.9 1316.72L1819.75 1380.72L1819.75 1508.72L1708.9 1572.72L1598.04 1508.72L1598.04 1380.72zM1930.6 164.72L2041.46 228.72L2041.46 356.72L1930.6 420.72L1819.75 356.72L1819.75 228.72zM1819.75 740.72L1930.6 804.72L1930.6 932.72L1819.75 996.72L1708.9 932.72L1708.9 804.72zM1930.6 932.72L2041.46 996.72L2041.46 1124.72L1930.6 1188.72L1819.75 1124.72L1819.75 996.72zM1930.6 1316.72L2041.46 1380.72L2041.46 1508.72L1930.6 1572.72L1819.75 1508.72L1819.75 1380.72zM2152.31 164.72L2263.17 228.72L2263.17 356.72L2152.31 420.72L2041.46 356.72L2041.46 228.72zM2152.31 1316.72L2263.17 1380.72L2263.17 1508.72L2152.31 1572.72L2041.46 1508.72L2041.46 1380.72zM2374.02 164.72L2484.88 228.72L2484.88 356.72L2374.02 420.72L2263.17 356.72L2263.17 228.72zM2263.17 356.72L2374.02 420.72L2374.02 548.72L2263.17 612.72L2152.31 548.72L2152.31 420.72zM2484.88 -27.28L2595.73 36.72L2595.73 164.72L2484.88 228.72L2374.02 164.72L2374.02 36.72zM2595.73 548.72L2706.59 612.72L2706.59 740.72L2595.73 804.72L2484.88 740.72L2484.88 612.72zM2484.88 1124.72L2595.73 1188.72L2595.73 1316.72L2484.88 1380.72L2374.02 1316.72L2374.02 1188.72zM2595.73 1316.72L2706.59 1380.72L2706.59 1508.72L2595.73 1572.72L2484.88 1508.72L2484.88 1380.72z"
      stroke="url(&quot;#SvgjsLinearGradient13627&quot;)" stroke-width="2"></path>
    <path
      d="M33.28 1124.72 a12.8 12.8 0 1 0 25.6 0 a12.8 12.8 0 1 0 -25.6 0zM144.13 1188.72 a12.8 12.8 0 1 0 25.6 0 a12.8 12.8 0 1 0 -25.6 0zM144.13 1316.72 a12.8 12.8 0 1 0 25.6 0 a12.8 12.8 0 1 0 -25.6 0zM33.28 1380.72 a12.8 12.8 0 1 0 25.6 0 a12.8 12.8 0 1 0 -25.6 0zM-77.57 1316.72 a12.8 12.8 0 1 0 25.6 0 a12.8 12.8 0 1 0 -25.6 0zM-77.57 1188.72 a12.8 12.8 0 1 0 25.6 0 a12.8 12.8 0 1 0 -25.6 0zM254.99 1380.72 a12.8 12.8 0 1 0 25.6 0 a12.8 12.8 0 1 0 -25.6 0zM254.99 1508.72 a12.8 12.8 0 1 0 25.6 0 a12.8 12.8 0 1 0 -25.6 0zM144.13 1572.72 a12.8 12.8 0 1 0 25.6 0 a12.8 12.8 0 1 0 -25.6 0zM33.28 1508.72 a12.8 12.8 0 1 0 25.6 0 a12.8 12.8 0 1 0 -25.6 0zM254.99 356.72 a12.8 12.8 0 1 0 25.6 0 a12.8 12.8 0 1 0 -25.6 0zM365.84 420.72 a12.8 12.8 0 1 0 25.6 0 a12.8 12.8 0 1 0 -25.6 0zM365.84 548.72 a12.8 12.8 0 1 0 25.6 0 a12.8 12.8 0 1 0 -25.6 0zM254.99 612.72 a12.8 12.8 0 1 0 25.6 0 a12.8 12.8 0 1 0 -25.6 0zM144.13 548.72 a12.8 12.8 0 1 0 25.6 0 a12.8 12.8 0 1 0 -25.6 0zM144.13 420.72 a12.8 12.8 0 1 0 25.6 0 a12.8 12.8 0 1 0 -25.6 0zM476.7 612.72 a12.8 12.8 0 1 0 25.6 0 a12.8 12.8 0 1 0 -25.6 0zM476.7 740.72 a12.8 12.8 0 1 0 25.6 0 a12.8 12.8 0 1 0 -25.6 0zM365.84 804.72 a12.8 12.8 0 1 0 25.6 0 a12.8 12.8 0 1 0 -25.6 0zM254.99 740.72 a12.8 12.8 0 1 0 25.6 0 a12.8 12.8 0 1 0 -25.6 0zM254.99 1124.72 a12.8 12.8 0 1 0 25.6 0 a12.8 12.8 0 1 0 -25.6 0zM365.84 1188.72 a12.8 12.8 0 1 0 25.6 0 a12.8 12.8 0 1 0 -25.6 0zM365.84 1316.72 a12.8 12.8 0 1 0 25.6 0 a12.8 12.8 0 1 0 -25.6 0zM476.7 -27.28 a12.8 12.8 0 1 0 25.6 0 a12.8 12.8 0 1 0 -25.6 0zM587.55 36.72 a12.8 12.8 0 1 0 25.6 0 a12.8 12.8 0 1 0 -25.6 0zM587.55 164.72 a12.8 12.8 0 1 0 25.6 0 a12.8 12.8 0 1 0 -25.6 0zM476.7 228.72 a12.8 12.8 0 1 0 25.6 0 a12.8 12.8 0 1 0 -25.6 0zM365.84 164.72 a12.8 12.8 0 1 0 25.6 0 a12.8 12.8 0 1 0 -25.6 0zM365.84 36.72 a12.8 12.8 0 1 0 25.6 0 a12.8 12.8 0 1 0 -25.6 0zM587.55 804.72 a12.8 12.8 0 1 0 25.6 0 a12.8 12.8 0 1 0 -25.6 0zM587.55 932.72 a12.8 12.8 0 1 0 25.6 0 a12.8 12.8 0 1 0 -25.6 0zM476.7 996.72 a12.8 12.8 0 1 0 25.6 0 a12.8 12.8 0 1 0 -25.6 0zM365.84 932.72 a12.8 12.8 0 1 0 25.6 0 a12.8 12.8 0 1 0 -25.6 0zM587.55 1316.72 a12.8 12.8 0 1 0 25.6 0 a12.8 12.8 0 1 0 -25.6 0zM698.41 1380.72 a12.8 12.8 0 1 0 25.6 0 a12.8 12.8 0 1 0 -25.6 0zM698.41 1508.72 a12.8 12.8 0 1 0 25.6 0 a12.8 12.8 0 1 0 -25.6 0zM587.55 1572.72 a12.8 12.8 0 1 0 25.6 0 a12.8 12.8 0 1 0 -25.6 0zM476.7 1508.72 a12.8 12.8 0 1 0 25.6 0 a12.8 12.8 0 1 0 -25.6 0zM476.7 1380.72 a12.8 12.8 0 1 0 25.6 0 a12.8 12.8 0 1 0 -25.6 0zM698.41 -27.28 a12.8 12.8 0 1 0 25.6 0 a12.8 12.8 0 1 0 -25.6 0zM809.26 36.72 a12.8 12.8 0 1 0 25.6 0 a12.8 12.8 0 1 0 -25.6 0zM809.26 164.72 a12.8 12.8 0 1 0 25.6 0 a12.8 12.8 0 1 0 -25.6 0zM698.41 228.72 a12.8 12.8 0 1 0 25.6 0 a12.8 12.8 0 1 0 -25.6 0zM920.12 -27.28 a12.8 12.8 0 1 0 25.6 0 a12.8 12.8 0 1 0 -25.6 0zM1030.97 36.72 a12.8 12.8 0 1 0 25.6 0 a12.8 12.8 0 1 0 -25.6 0zM1030.97 164.72 a12.8 12.8 0 1 0 25.6 0 a12.8 12.8 0 1 0 -25.6 0zM920.12 228.72 a12.8 12.8 0 1 0 25.6 0 a12.8 12.8 0 1 0 -25.6 0zM1141.82 228.72 a12.8 12.8 0 1 0 25.6 0 a12.8 12.8 0 1 0 -25.6 0zM1141.82 356.72 a12.8 12.8 0 1 0 25.6 0 a12.8 12.8 0 1 0 -25.6 0zM1030.97 420.72 a12.8 12.8 0 1 0 25.6 0 a12.8 12.8 0 1 0 -25.6 0zM920.12 356.72 a12.8 12.8 0 1 0 25.6 0 a12.8 12.8 0 1 0 -25.6 0zM920.12 740.72 a12.8 12.8 0 1 0 25.6 0 a12.8 12.8 0 1 0 -25.6 0zM1030.97 804.72 a12.8 12.8 0 1 0 25.6 0 a12.8 12.8 0 1 0 -25.6 0zM1030.97 932.72 a12.8 12.8 0 1 0 25.6 0 a12.8 12.8 0 1 0 -25.6 0zM920.12 996.72 a12.8 12.8 0 1 0 25.6 0 a12.8 12.8 0 1 0 -25.6 0zM809.26 932.72 a12.8 12.8 0 1 0 25.6 0 a12.8 12.8 0 1 0 -25.6 0zM809.26 804.72 a12.8 12.8 0 1 0 25.6 0 a12.8 12.8 0 1 0 -25.6 0zM1141.82 996.72 a12.8 12.8 0 1 0 25.6 0 a12.8 12.8 0 1 0 -25.6 0zM1141.82 1124.72 a12.8 12.8 0 1 0 25.6 0 a12.8 12.8 0 1 0 -25.6 0zM1030.97 1188.72 a12.8 12.8 0 1 0 25.6 0 a12.8 12.8 0 1 0 -25.6 0zM920.12 1124.72 a12.8 12.8 0 1 0 25.6 0 a12.8 12.8 0 1 0 -25.6 0zM1030.97 1316.72 a12.8 12.8 0 1 0 25.6 0 a12.8 12.8 0 1 0 -25.6 0zM1141.82 1380.72 a12.8 12.8 0 1 0 25.6 0 a12.8 12.8 0 1 0 -25.6 0zM1141.82 1508.72 a12.8 12.8 0 1 0 25.6 0 a12.8 12.8 0 1 0 -25.6 0zM1030.97 1572.72 a12.8 12.8 0 1 0 25.6 0 a12.8 12.8 0 1 0 -25.6 0zM920.12 1508.72 a12.8 12.8 0 1 0 25.6 0 a12.8 12.8 0 1 0 -25.6 0zM920.12 1380.72 a12.8 12.8 0 1 0 25.6 0 a12.8 12.8 0 1 0 -25.6 0zM1252.68 1316.72 a12.8 12.8 0 1 0 25.6 0 a12.8 12.8 0 1 0 -25.6 0zM1363.53 1380.72 a12.8 12.8 0 1 0 25.6 0 a12.8 12.8 0 1 0 -25.6 0zM1363.53 1508.72 a12.8 12.8 0 1 0 25.6 0 a12.8 12.8 0 1 0 -25.6 0zM1252.68 1572.72 a12.8 12.8 0 1 0 25.6 0 a12.8 12.8 0 1 0 -25.6 0zM1474.39 164.72 a12.8 12.8 0 1 0 25.6 0 a12.8 12.8 0 1 0 -25.6 0zM1585.24 228.72 a12.8 12.8 0 1 0 25.6 0 a12.8 12.8 0 1 0 -25.6 0zM1585.24 356.72 a12.8 12.8 0 1 0 25.6 0 a12.8 12.8 0 1 0 -25.6 0zM1474.39 420.72 a12.8 12.8 0 1 0 25.6 0 a12.8 12.8 0 1 0 -25.6 0zM1363.53 356.72 a12.8 12.8 0 1 0 25.6 0 a12.8 12.8 0 1 0 -25.6 0zM1363.53 228.72 a12.8 12.8 0 1 0 25.6 0 a12.8 12.8 0 1 0 -25.6 0zM1474.39 548.72 a12.8 12.8 0 1 0 25.6 0 a12.8 12.8 0 1 0 -25.6 0zM1585.24 612.72 a12.8 12.8 0 1 0 25.6 0 a12.8 12.8 0 1 0 -25.6 0zM1585.24 740.72 a12.8 12.8 0 1 0 25.6 0 a12.8 12.8 0 1 0 -25.6 0zM1474.39 804.72 a12.8 12.8 0 1 0 25.6 0 a12.8 12.8 0 1 0 -25.6 0zM1363.53 740.72 a12.8 12.8 0 1 0 25.6 0 a12.8 12.8 0 1 0 -25.6 0zM1363.53 612.72 a12.8 12.8 0 1 0 25.6 0 a12.8 12.8 0 1 0 -25.6 0zM1585.24 -27.28 a12.8 12.8 0 1 0 25.6 0 a12.8 12.8 0 1 0 -25.6 0zM1696.1 36.72 a12.8 12.8 0 1 0 25.6 0 a12.8 12.8 0 1 0 -25.6 0zM1696.1 164.72 a12.8 12.8 0 1 0 25.6 0 a12.8 12.8 0 1 0 -25.6 0zM1474.39 36.72 a12.8 12.8 0 1 0 25.6 0 a12.8 12.8 0 1 0 -25.6 0zM1806.95 228.72 a12.8 12.8 0 1 0 25.6 0 a12.8 12.8 0 1 0 -25.6 0zM1806.95 356.72 a12.8 12.8 0 1 0 25.6 0 a12.8 12.8 0 1 0 -25.6 0zM1696.1 420.72 a12.8 12.8 0 1 0 25.6 0 a12.8 12.8 0 1 0 -25.6 0zM1696.1 1316.72 a12.8 12.8 0 1 0 25.6 0 a12.8 12.8 0 1 0 -25.6 0zM1806.95 1380.72 a12.8 12.8 0 1 0 25.6 0 a12.8 12.8 0 1 0 -25.6 0zM1806.95 1508.72 a12.8 12.8 0 1 0 25.6 0 a12.8 12.8 0 1 0 -25.6 0zM1696.1 1572.72 a12.8 12.8 0 1 0 25.6 0 a12.8 12.8 0 1 0 -25.6 0zM1585.24 1508.72 a12.8 12.8 0 1 0 25.6 0 a12.8 12.8 0 1 0 -25.6 0zM1585.24 1380.72 a12.8 12.8 0 1 0 25.6 0 a12.8 12.8 0 1 0 -25.6 0zM1917.8 164.72 a12.8 12.8 0 1 0 25.6 0 a12.8 12.8 0 1 0 -25.6 0zM2028.66 228.72 a12.8 12.8 0 1 0 25.6 0 a12.8 12.8 0 1 0 -25.6 0zM2028.66 356.72 a12.8 12.8 0 1 0 25.6 0 a12.8 12.8 0 1 0 -25.6 0zM1917.8 420.72 a12.8 12.8 0 1 0 25.6 0 a12.8 12.8 0 1 0 -25.6 0zM1806.95 740.72 a12.8 12.8 0 1 0 25.6 0 a12.8 12.8 0 1 0 -25.6 0zM1917.8 804.72 a12.8 12.8 0 1 0 25.6 0 a12.8 12.8 0 1 0 -25.6 0zM1917.8 932.72 a12.8 12.8 0 1 0 25.6 0 a12.8 12.8 0 1 0 -25.6 0zM1806.95 996.72 a12.8 12.8 0 1 0 25.6 0 a12.8 12.8 0 1 0 -25.6 0zM1696.1 932.72 a12.8 12.8 0 1 0 25.6 0 a12.8 12.8 0 1 0 -25.6 0zM1696.1 804.72 a12.8 12.8 0 1 0 25.6 0 a12.8 12.8 0 1 0 -25.6 0zM2028.66 996.72 a12.8 12.8 0 1 0 25.6 0 a12.8 12.8 0 1 0 -25.6 0zM2028.66 1124.72 a12.8 12.8 0 1 0 25.6 0 a12.8 12.8 0 1 0 -25.6 0zM1917.8 1188.72 a12.8 12.8 0 1 0 25.6 0 a12.8 12.8 0 1 0 -25.6 0zM1806.95 1124.72 a12.8 12.8 0 1 0 25.6 0 a12.8 12.8 0 1 0 -25.6 0zM1917.8 1316.72 a12.8 12.8 0 1 0 25.6 0 a12.8 12.8 0 1 0 -25.6 0zM2028.66 1380.72 a12.8 12.8 0 1 0 25.6 0 a12.8 12.8 0 1 0 -25.6 0zM2028.66 1508.72 a12.8 12.8 0 1 0 25.6 0 a12.8 12.8 0 1 0 -25.6 0zM1917.8 1572.72 a12.8 12.8 0 1 0 25.6 0 a12.8 12.8 0 1 0 -25.6 0zM2139.51 164.72 a12.8 12.8 0 1 0 25.6 0 a12.8 12.8 0 1 0 -25.6 0zM2250.37 228.72 a12.8 12.8 0 1 0 25.6 0 a12.8 12.8 0 1 0 -25.6 0zM2250.37 356.72 a12.8 12.8 0 1 0 25.6 0 a12.8 12.8 0 1 0 -25.6 0zM2139.51 420.72 a12.8 12.8 0 1 0 25.6 0 a12.8 12.8 0 1 0 -25.6 0zM2139.51 1316.72 a12.8 12.8 0 1 0 25.6 0 a12.8 12.8 0 1 0 -25.6 0zM2250.37 1380.72 a12.8 12.8 0 1 0 25.6 0 a12.8 12.8 0 1 0 -25.6 0zM2250.37 1508.72 a12.8 12.8 0 1 0 25.6 0 a12.8 12.8 0 1 0 -25.6 0zM2139.51 1572.72 a12.8 12.8 0 1 0 25.6 0 a12.8 12.8 0 1 0 -25.6 0zM2361.22 164.72 a12.8 12.8 0 1 0 25.6 0 a12.8 12.8 0 1 0 -25.6 0zM2472.08 228.72 a12.8 12.8 0 1 0 25.6 0 a12.8 12.8 0 1 0 -25.6 0zM2472.08 356.72 a12.8 12.8 0 1 0 25.6 0 a12.8 12.8 0 1 0 -25.6 0zM2361.22 420.72 a12.8 12.8 0 1 0 25.6 0 a12.8 12.8 0 1 0 -25.6 0zM2361.22 548.72 a12.8 12.8 0 1 0 25.6 0 a12.8 12.8 0 1 0 -25.6 0zM2250.37 612.72 a12.8 12.8 0 1 0 25.6 0 a12.8 12.8 0 1 0 -25.6 0zM2139.51 548.72 a12.8 12.8 0 1 0 25.6 0 a12.8 12.8 0 1 0 -25.6 0zM2472.08 -27.28 a12.8 12.8 0 1 0 25.6 0 a12.8 12.8 0 1 0 -25.6 0zM2582.93 36.72 a12.8 12.8 0 1 0 25.6 0 a12.8 12.8 0 1 0 -25.6 0zM2582.93 164.72 a12.8 12.8 0 1 0 25.6 0 a12.8 12.8 0 1 0 -25.6 0zM2361.22 36.72 a12.8 12.8 0 1 0 25.6 0 a12.8 12.8 0 1 0 -25.6 0zM2582.93 548.72 a12.8 12.8 0 1 0 25.6 0 a12.8 12.8 0 1 0 -25.6 0zM2693.79 612.72 a12.8 12.8 0 1 0 25.6 0 a12.8 12.8 0 1 0 -25.6 0zM2693.79 740.72 a12.8 12.8 0 1 0 25.6 0 a12.8 12.8 0 1 0 -25.6 0zM2582.93 804.72 a12.8 12.8 0 1 0 25.6 0 a12.8 12.8 0 1 0 -25.6 0zM2472.08 740.72 a12.8 12.8 0 1 0 25.6 0 a12.8 12.8 0 1 0 -25.6 0zM2472.08 612.72 a12.8 12.8 0 1 0 25.6 0 a12.8 12.8 0 1 0 -25.6 0zM2472.08 1124.72 a12.8 12.8 0 1 0 25.6 0 a12.8 12.8 0 1 0 -25.6 0zM2582.93 1188.72 a12.8 12.8 0 1 0 25.6 0 a12.8 12.8 0 1 0 -25.6 0zM2582.93 1316.72 a12.8 12.8 0 1 0 25.6 0 a12.8 12.8 0 1 0 -25.6 0zM2472.08 1380.72 a12.8 12.8 0 1 0 25.6 0 a12.8 12.8 0 1 0 -25.6 0zM2361.22 1316.72 a12.8 12.8 0 1 0 25.6 0 a12.8 12.8 0 1 0 -25.6 0zM2361.22 1188.72 a12.8 12.8 0 1 0 25.6 0 a12.8 12.8 0 1 0 -25.6 0zM2693.79 1380.72 a12.8 12.8 0 1 0 25.6 0 a12.8 12.8 0 1 0 -25.6 0zM2693.79 1508.72 a12.8 12.8 0 1 0 25.6 0 a12.8 12.8 0 1 0 -25.6 0zM2582.93 1572.72 a12.8 12.8 0 1 0 25.6 0 a12.8 12.8 0 1 0 -25.6 0zM2472.08 1508.72 a12.8 12.8 0 1 0 25.6 0 a12.8 12.8 0 1 0 -25.6 0z"
      fill="url(&quot;#SvgjsLinearGradient13627&quot;)"></path>
  </g>
  <defs>
    <mask id="SvgjsMask13624">
      <rect width="2560" height="1440" fill="#ffffff"></rect>
    </mask>
    <linearGradient x1="89.06%" y1="119.44%" x2="10.94%" y2="-19.44%" gradientUnits="userSpaceOnUse"
                    id="SvgjsLinearGradient13625">
      <stop stop-color="rgba(0, 112, 255, 0.32)" offset="0"></stop>
      <stop stop-color="rgba(255, 255, 255, 0)" offset="1"></stop>
    </linearGradient>
    <linearGradient x1="280.06399999999996" y1="-279.93600000000004" x2="2279.936" y2="1719.936"
                    gradientUnits="userSpaceOnUse" id="SvgjsLinearGradient13626">
      <stop stop-color="rgba(56, 134, 191, 0.14)" offset="0"></stop>
      <stop stop-color="rgba(0, 191, 255, 0.14)" offset="1"></stop>
    </linearGradient>
    <linearGradient x1="2279.936" y1="1719.936" x2="280.06399999999996" y2="-279.93600000000004"
                    gradientUnits="userSpaceOnUse" id="SvgjsLinearGradient13627">
      <stop stop-color="rgba(255, 255, 255, 0.5)" offset="0"></stop>
      <stop stop-color="rgba(122, 181, 255, 0.2)" offset="1"></stop>
    </linearGradient>
  </defs>
</svg>
