<svg xmlns="http://www.w3.org/2000/svg" version="1.1" xmlns:xlink="http://www.w3.org/1999/xlink"
     xmlns:svgjs="http://svgjs.dev/svgjs" width="2560" height="1440" preserveAspectRatio="none" viewBox="0 0 2560 1440">
  <g mask="url(&quot;#SvgjsMask1068&quot;)" fill="none">
    <rect width="2560" height="1440" x="0" y="0" fill="rgba(0, 133, 249, 0.1)"></rect>
    <path
      d="M0,755.242C158.261,743.554,331.827,809.859,465.399,724.176C598.987,638.483,614.763,455.019,687.735,314.078C765.348,164.174,914.545,38.133,907.93,-130.541C901.204,-302.051,789.377,-461.509,653.219,-566.017C526.944,-662.939,347.83,-620.736,198.269,-675.242C33.788,-735.185,-92.773,-934.992,-264.39,-900.429C-433.61,-866.349,-515.121,-668.566,-594.916,-515.498C-661.987,-386.837,-652.022,-239.976,-682.622,-98.146C-716.121,57.119,-813.116,201.711,-783.317,357.729C-750.39,530.122,-668.286,716.916,-511.777,796.34C-356.008,875.389,-174.205,768.107,0,755.242"
      fill="rgba(0, 133, 249, 0.05)"></path>
    <path
      d="M2560 2516.804C2787.904 2527.2690000000002 3056.089 2630.078 3229.667 2482.022 3406.66 2331.053 3305.057 2034.9569999999999 3382.207 1815.489 3449.503 1624.0529999999999 3646.2870000000003 1485.983 3651.12 1283.121 3656.203 1069.776 3535.0190000000002 876.606 3408.675 704.619 3274.17 521.523 3127.741 308.91100000000006 2904.493 266.7650000000001 2683.069 224.96399999999994 2497.757 428.202 2281.596 491.84400000000005 2065.657 555.421 1800.277 485.302 1636.7640000000001 640.012 1471.85 796.047 1481.992 1055.643 1448.408 1280.177 1414.635 1505.975 1352.142 1740.734 1440.65 1951.19 1530.119 2163.93 1722.742 2318.197 1928.726 2422.282 2122.555 2520.225 2343.06 2506.842 2560 2516.804"
      fill="rgba(0, 133, 249, 0.12)"></path>
  </g>
  <defs>
    <mask id="SvgjsMask1068">
      <rect width="2560" height="1440" fill="#ffffff"></rect>
    </mask>
  </defs>
</svg>
